# xmcd CD database file
#
# Track frame offsets:
#	150
#	9348
#	23046
#	49269
#	65517
#	83640
#	96063
#	116061
#	133884
#	152157
#	165105
#	180978
#	194751
#	214449
#	236697
#	249495
#	270318
#	292716
#	312189
#	332112
#
# Disc length: 4783 seconds
#
# Revision: 0
# Processed by: cddbd v1.5.2PL0 Copyright (c) Steve Scherf et al.
# Submitted via: CDex 1.70beta2
#
DISCID=0f12ad14
DTITLE=QUEEN - Absolute greatest hits
DYEAR=2009
DGENRE=Classic Hard Rock
TTITLE0=QUEEN - We will rock you
TTITLE1=QUEEN - We are the champions
TTITLE2=QUEEN - Radio Ga Ga
TTITLE3=QUEEN - Another one bites the dust
TTITLE4=QUEEN - I want it all
TTITLE5=QUEEN - Crazy little thing called love
TTITLE6=QUEEN - A kind of magic
TTITLE7=QUEEN - Under pressure
TTITLE8=QUEEN - One vision
TTITLE9=QUEEN - You're my best friend
TTITLE10=QUEEN - Don't stop me now
TTITLE11=QUEEN - Killer Queen
TTITLE12=QUEEN - These are the days of our lives
TTITLE13=QUEEN - Who wants to live forever
TTITLE14=QUEEN - Seven seas of Rhye
TTITLE15=QUEEN - Heaven for everyone
TTITLE16=QUEEN - Somebody to love
TTITLE17=QUEEN - I want to break free
TTITLE18=QUEEN - The show must go on
TTITLE19=QUEEN - Bohemian Rhapsody
EXTD=YEAR: 2009
EXTT0=
EXTT1=
EXTT2=
EXTT3=
EXTT4=
EXTT5=
EXTT6=
EXTT7=
EXTT8=
EXTT9=
EXTT10=
EXTT11=
EXTT12=
EXTT13=
EXTT14=
EXTT15=
EXTT16=
EXTT17=
EXTT18=
EXTT19=
PLAYORDER=
